<svg width="145.000000" height="56.000000" viewBox="0 0 145 56" fill="none" xmlns="http://www.w3.org/2000/svg" xmlns:xlink="http://www.w3.org/1999/xlink">
	<desc>
			Created with Pixso.
	</desc>
	<defs>
		<filter id="filter_1_167_dd" x="0.000000" y="0.000000" width="145.000000" height="56.000000" filterUnits="userSpaceOnUse" color-interpolation-filters="sRGB">
			<feFlood flood-opacity="0" result="BackgroundImageFix"/>
			<feColorMatrix in="SourceAlpha" type="matrix" values="0 0 0 0 0 0 0 0 0 0 0 0 0 0 0 0 0 0 127 0" result="hardAlpha"/>
			<feOffset dx="0" dy="4"/>
			<feGaussianBlur stdDeviation="1.33333"/>
			<feComposite in2="hardAlpha" operator="out" k2="-1" k3="1"/>
			<feColorMatrix type="matrix" values="0 0 0 0 0 0 0 0 0 0 0 0 0 0 0 0 0 0 0.25 0"/>
			<feBlend mode="normal" in2="BackgroundImageFix" result="effect_dropShadow_1"/>
			<feBlend mode="normal" in="SourceGraphic" in2="effect_dropShadow_1" result="shape"/>
		</filter>
	</defs>
	<g filter="url(#filter_1_167_dd)">
		<mask id="mask1_168" mask-type="alpha" maskUnits="userSpaceOnUse" x="4.000000" y="0.000000" width="137.000000" height="48.000000">
			<path id="Vector" d="M4 0L141 0L141 48L4 48L4 0Z" fill="#000000" fill-opacity="1.000000" fill-rule="evenodd"/>
		</mask>
		<g mask="url(#mask1_168)">
			<path id="Vector" d="M4.15 27.91C4.39 27.85 28.81 22.03 47.19 13.88C49.24 12.97 50.9 12.43 52.29 12.18C50.73 13.75 41.54 17.68 48.88 18.37C55.61 19.01 44.52 27.01 39.43 29.91C26.05 34.15 17.36 35.82 17.21 35.85L17.39 36.83C17.44 36.82 18.22 36.67 19.62 36.36C27 34.73 51.76 28.62 80.17 14.65C84.15 12.69 87.4 11.6 90.14 11.2C89.34 15.31 80.05 24.41 94.88 26.71C108.41 28.81 81.28 34.13 71.17 36.84C69.71 37.23 68.6 37.57 68.03 37.83C63.56 39.88 115.46 38.04 138.67 37.95C139.43 37.97 140.2 37.99 141 37.99L141 36.99C120.27 36.99 112.92 27.51 107.02 19.89C100.89 11.98 96.05 5.72 79.73 13.75C75.93 15.61 72.1 17.39 68.23 19.09C64.8 17.87 62.73 16.12 60.91 14.58C57.53 11.71 55.09 9.65 46.93 13.27C28.6 21.4 4.24 27.2 4 27.26L4.15 27.91Z" fill="#FDFDFD" fill-opacity="1.000000" fill-rule="nonzero"/>
		</g>
	</g>
</svg>
